<svg width="158" height="187" viewBox="0 0 158 187" fill="none" xmlns="http://www.w3.org/2000/svg">
<path d="M104.344 183.457C103.09 184.386 101.869 185.29 100.614 186.219C100.408 186.011 100.248 185.852 100.09 185.691C94.4347 179.945 88.7819 174.198 83.1224 168.457C82.3916 167.715 81.6169 167.017 80.8818 166.28C80.632 166.03 80.3789 165.99 80.0499 166.048C77.1626 166.563 74.2545 166.922 71.333 167.168C65.6588 167.646 59.9731 167.822 54.283 167.639C50.6805 167.524 47.0786 167.326 43.4832 167.07C39.7682 166.806 36.0921 166.219 32.4481 165.446C28.7611 164.663 25.1774 163.559 21.7472 161.98C19.1751 160.795 16.8462 159.226 14.6088 157.507C10.6865 154.492 7.84388 150.628 5.69365 146.214C4.17395 143.095 3.13437 139.813 2.36571 136.438C1.36524 132.044 0.817176 127.59 0.523377 123.098C0.0862274 116.414 0.0448178 109.722 0.0414765 103.028C0.033964 87.9798 0.0188843 72.9311 0.000143761 57.8825C-0.00632171 52.69 0.205425 47.5064 0.609269 42.3309C0.854 39.1945 1.22293 36.0718 1.85367 32.9866C2.82437 28.2386 4.28791 23.6607 6.6584 19.4097C9.60615 14.1234 13.7472 10.0222 19.0121 7.0519C22.6637 4.99182 26.5675 3.59244 30.6233 2.56938C35.5036 1.33834 40.4721 0.731038 45.4785 0.382348C52.9332 -0.136856 60.3942 -0.0728731 67.853 0.250908C71.9966 0.430774 76.1279 0.812746 80.2158 1.53334C84.897 2.35853 89.4768 3.55595 93.8383 5.49617C96.5129 6.68598 99.0089 8.17544 101.294 10.0012C104.048 12.2018 106.284 14.8646 108.142 17.8551C109.852 20.6071 111.126 23.5546 112.133 26.6263C113.315 30.2303 114.097 33.9212 114.575 37.6808C115.244 42.9491 115.6 48.238 115.62 53.5486C115.665 65.8184 115.709 78.0882 115.743 90.358C115.761 96.7053 115.753 103.053 115.763 109.4C115.77 114.031 115.634 118.657 115.269 123.274C115.136 124.967 114.963 126.656 114.805 128.346C114.789 128.515 114.743 128.68 114.698 128.916C114.248 128.797 113.829 128.686 113.41 128.577C110.968 127.938 108.527 127.299 106.086 126.663C105.635 126.545 105.227 126.367 104.843 126.082C101.019 123.244 97.189 120.414 93.348 117.6C90.9531 115.846 88.5343 114.124 86.1292 112.383C84.9891 111.558 83.8666 110.707 82.7143 109.9C82.2769 109.593 82.1175 109.263 82.1225 108.708C82.1594 104.599 82.1527 100.489 82.1526 96.3795C82.1524 83.6075 82.1676 70.8354 82.1351 58.0634C82.1261 54.5157 81.9694 50.9685 81.8854 47.4209C81.8259 44.9111 81.6192 42.4127 81.2896 39.9254C80.9716 37.5262 80.4113 35.1823 79.4378 32.9605C77.9721 29.6153 75.5099 27.2992 72.1018 25.98C69.6317 25.024 67.055 24.5842 64.4337 24.3665C60.0623 24.0036 55.6875 24.0094 51.3168 24.3662C49.0651 24.55 46.8365 24.9019 44.6866 25.6339C42.8439 26.2612 41.1335 27.1408 39.6803 28.4519C37.833 30.1187 36.6187 32.2036 35.8053 34.5347C34.9023 37.1224 34.5224 39.813 34.273 42.5261C33.9179 46.3901 33.819 50.2673 33.8052 54.1434C33.7697 64.0596 33.78 73.9759 33.7798 83.8922C33.7796 91.4164 33.7625 98.9408 33.8089 106.465C33.8359 110.843 33.9458 115.221 34.0698 119.597C34.1623 122.859 34.4688 126.105 35.1079 129.311C35.6085 131.822 36.3538 134.24 37.7403 136.43C39.1462 138.652 41.0702 140.257 43.4359 141.348C45.6101 142.35 47.9199 142.865 50.2828 143.17C54.5091 143.715 58.7486 143.618 62.9899 143.433C63.587 143.407 64.1839 143.374 64.7807 143.343C64.8173 143.341 64.853 143.321 64.8995 143.307C64.9734 143.068 64.7642 142.969 64.6448 142.841C63.0771 141.165 61.502 139.496 59.9327 137.822C59.5654 137.43 59.2127 137.024 58.8109 136.578C59.005 136.408 59.1542 136.267 59.3129 136.139C61.8464 134.09 64.382 132.043 66.9147 129.992C67.2291 129.738 67.5372 129.474 67.8329 129.198C67.994 129.047 68.1358 129.034 68.3501 129.09C71.1635 129.833 73.9806 130.561 76.797 131.292C80.7141 132.309 84.6307 133.327 88.5488 134.34C91.2167 135.03 93.8864 135.713 96.5558 136.398C98.0306 136.776 99.5088 137.141 100.979 137.535C101.27 137.613 101.558 137.758 101.805 137.932C104.34 139.723 106.864 141.529 109.396 143.325C109.818 143.624 110.258 143.897 110.702 144.19C109.252 147.701 107.258 150.839 104.825 153.735C104.939 153.88 105.022 154.006 105.126 154.112C106.716 155.74 108.308 157.366 109.902 158.99C113.372 162.528 116.846 166.063 120.312 169.606C120.672 169.975 120.988 170.389 121.373 170.84C115.734 175.136 110.031 179.25 104.344 183.457Z" fill="#363636"/>
<path d="M98.7757 134.483C95.4162 133.594 92.0989 132.728 88.7851 131.848C86.681 131.29 84.582 130.713 82.4811 130.142C79.6743 129.381 76.8652 128.628 74.0618 127.854C70.6637 126.915 67.2703 125.96 63.8755 125.01C60.4618 124.055 57.0433 123.116 53.6378 122.132C51.6585 121.56 49.6853 120.959 47.7381 120.288C46.4309 119.837 45.3061 119.04 44.3414 118.04C44.1212 117.811 43.9375 117.548 43.737 117.301C43.7635 117.259 43.79 117.217 43.8165 117.176C44.335 117.267 44.8548 117.352 45.3718 117.451C49.1388 118.174 52.9052 118.899 56.6717 119.625C60.0027 120.266 63.3316 120.918 66.6648 121.546C69.7712 122.132 72.8821 122.694 75.991 123.266C78.7397 123.771 81.4933 124.252 84.2361 124.788C89.5327 125.824 94.811 126.958 100.12 127.923C104.112 128.649 107.985 129.821 111.908 130.804C115.459 131.695 119.005 132.603 122.561 133.476C123.87 133.798 125.192 134.078 126.519 134.31C128.12 134.59 129.716 134.555 131.227 133.864C131.749 133.625 132.235 133.303 132.719 132.988C133.3 132.61 133.869 132.21 134.43 131.802C137.151 129.823 141.355 129.72 144.419 131.912C145.536 132.712 146.454 133.663 147.131 134.868C147.458 135.451 147.843 136.029 148.31 136.501C149.198 137.396 150.32 137.835 151.587 137.89C153.049 137.953 154.472 137.761 155.852 137.269C155.961 137.23 156.068 137.185 156.179 137.155C156.69 137.016 156.924 137.111 157.132 137.535C157.364 138.006 157.298 138.479 156.863 138.695C156.334 138.958 155.767 139.195 155.19 139.301C154.112 139.5 153.017 139.603 151.927 139.73C151.487 139.782 151.043 139.797 150.6 139.823C149.3 139.9 148.238 140.475 147.346 141.393C147.064 141.683 146.806 141.996 146.531 142.294C144.413 144.588 141.842 145.569 138.721 145.047C135.853 144.568 133.662 143.088 132.256 140.567C131.297 138.847 129.907 137.824 128.061 137.285C126.464 136.819 124.837 136.509 123.195 136.285C121.228 136.017 119.256 135.776 117.282 135.57C115.647 135.399 114.001 135.364 112.385 135.72C110.908 136.046 109.412 136.148 107.911 136.24C106.434 136.331 104.981 136.135 103.556 135.788C101.967 135.401 100.397 134.933 98.7757 134.483ZM145.478 137.313C145.347 136.853 145.27 136.367 145.076 135.935C144.012 133.57 141.735 132.213 138.997 132.377C136.89 132.504 135.247 133.467 134.453 135.488C133.634 137.57 133.972 139.542 135.544 141.162C137.044 142.708 138.929 143.329 141.08 143.002C143.648 142.61 145.848 140.228 145.478 137.313ZM101.114 131C100.455 132.481 101.48 133.599 102.71 133.934C102.863 133.976 103.054 133.939 103.212 133.89C103.884 133.683 104.236 133.16 104.433 132.534C104.78 131.43 104.007 129.745 102.422 130.006C101.844 130.101 101.461 130.454 101.114 131Z" fill="#363636"/>
<path d="M95.1234 121.955C97.7175 123.831 100.277 125.685 102.835 127.541C102.855 127.556 102.847 127.611 102.863 127.725C102.439 127.66 102.031 127.614 101.63 127.532C98.8172 126.956 96.0092 126.356 93.1928 125.799C91.757 125.515 90.3061 125.308 88.8648 125.051C88.6864 125.019 88.4996 124.923 88.3593 124.806C85.5933 122.493 82.8456 120.158 80.0702 117.857C74.3262 113.094 68.5717 108.344 62.8146 103.596C59.3485 100.738 55.872 97.893 52.3939 95.0497C51.7225 94.5008 51.0211 93.9886 50.3351 93.4575C50.2475 93.3898 50.1692 93.3101 50.0274 93.1828C50.184 93.1311 50.277 93.0825 50.3744 93.0709C51.929 92.8855 53.4262 93.0584 54.7717 93.9136C55.9585 94.6679 57.1155 95.4695 58.2778 96.2617C60.0778 97.4884 61.8716 98.7241 63.6671 99.9574C66.0029 101.562 68.3397 103.165 70.6725 104.774C73.1959 106.514 75.7206 108.253 78.2348 110.007C81.2389 112.102 84.2386 114.204 87.2288 116.319C89.8571 118.178 92.4696 120.06 95.1234 121.955Z" fill="#363636"/>
<path d="M135.207 148.765C137.897 149.511 139.813 151.13 141.024 153.577C141.365 154.266 141.614 155.001 141.912 155.711C142.098 156.155 142.281 156.602 142.492 157.034C143.127 158.332 144.118 159.261 145.434 159.855C146.568 160.367 147.754 160.685 148.974 160.897C149.277 160.95 149.584 160.99 149.885 161.055C150.471 161.181 150.724 161.578 150.607 162.164C150.489 162.758 150.046 163.118 149.493 162.995C148.836 162.848 148.188 162.657 147.545 162.454C146.278 162.053 145.021 161.621 143.754 161.221C142.544 160.838 141.41 161.023 140.308 161.652C139.389 162.175 138.456 162.696 137.475 163.081C135.439 163.881 133.385 163.71 131.38 162.923C128.938 161.965 127.174 160.299 126.322 157.782C126.046 156.965 125.886 156.104 125.735 155.251C125.309 152.856 124.085 150.935 122.202 149.461C120.047 147.775 117.84 146.155 115.628 144.543C113.183 142.76 110.714 141.01 108.242 139.265C107.125 138.475 105.975 137.733 104.843 136.964C104.661 136.841 104.498 136.689 104.347 136.506C106.956 137.122 109.533 136.781 112.123 136.357C112.722 137.481 113.509 138.429 114.327 139.35C115.804 141.012 117.443 142.508 119.174 143.894C120.842 145.23 122.502 146.587 124.352 147.678C125.15 148.148 125.952 148.598 126.841 148.888C127.98 149.261 129.11 149.264 130.253 148.938C131.874 148.475 133.507 148.321 135.207 148.765ZM132.213 150.698C131.988 150.752 131.761 150.798 131.539 150.862C130.044 151.29 129.013 152.22 128.505 153.701C128.199 154.596 128.161 155.515 128.329 156.442C128.746 158.751 130.222 160.176 132.281 161.065C133.679 161.668 135.138 161.712 136.571 161.186C139.001 160.295 140.205 157.496 139.28 154.979C138.288 152.279 135.651 150.314 132.213 150.698Z" fill="#363636"/>
<path d="M102.946 131.177C103.042 131.207 103.136 131.199 103.148 131.228C103.315 131.602 103.557 131.967 103.334 132.404C103.229 132.607 103.069 132.729 102.835 132.725C102.624 132.721 102.404 132.721 102.323 132.461C102.317 132.442 102.314 132.422 102.305 132.406C102.003 131.87 102.003 131.87 102.464 131.51C102.503 131.322 102.077 131.138 102.419 130.944C102.641 130.818 102.824 130.9 102.946 131.177Z" fill="#363636"/>
</svg>
