<svg width="158" height="187" viewBox="0 0 158 187" fill="none" xmlns="http://www.w3.org/2000/svg">
<path d="M104.342 183.458C103.088 184.387 101.867 185.291 100.612 186.22C100.405 186.012 100.246 185.853 100.087 185.692C94.4325 179.946 88.7799 174.199 83.1205 168.458C82.3897 167.716 81.6151 167.018 80.88 166.281C80.6302 166.031 80.377 165.991 80.048 166.049C77.1608 166.564 74.2528 166.923 71.3314 167.169C65.6573 167.647 59.9718 167.823 54.2818 167.64C50.6794 167.525 47.0776 167.327 43.4822 167.071C39.7673 166.807 36.0913 166.22 32.4474 165.447C28.7604 164.664 25.1768 163.56 21.7467 161.981C19.1746 160.796 16.8458 159.227 14.6084 157.507C10.6863 154.493 7.8437 150.629 5.69351 146.215C4.17385 143.096 3.1343 139.814 2.36566 136.439C1.36521 132.045 0.817157 127.59 0.523365 123.098C0.0862254 116.415 0.0448168 109.723 0.0414755 103.029C0.0339633 87.9803 0.0188839 72.9316 0.000143757 57.8828C-0.00632157 52.6903 0.20542 47.5067 0.609255 42.3311C0.853981 39.1947 1.2229 36.072 1.85363 32.9868C2.82431 28.2387 4.28782 23.6609 6.65825 19.4098C9.60593 14.1235 13.7469 10.0223 19.0117 7.05194C22.6632 4.99185 26.5669 3.59246 30.6226 2.5694C35.5028 1.33835 40.4712 0.731042 45.4775 0.382351C52.932 -0.136857 60.3928 -0.0728736 67.8515 0.250909C71.9949 0.430777 76.1262 0.812751 80.2139 1.53335C84.895 2.35854 89.4747 3.55597 93.8362 5.49621C96.5107 6.68602 99.0066 8.17549 101.291 10.0012C104.045 12.2018 106.282 14.8647 108.14 17.8552C109.85 20.6072 111.124 23.5547 112.131 26.6264C113.312 30.2305 114.094 33.9214 114.572 37.681C115.242 42.9494 115.598 48.2383 115.617 53.5489C115.662 65.8188 115.707 78.0886 115.741 90.3586C115.759 96.7059 115.751 103.053 115.76 109.401C115.767 114.032 115.631 118.658 115.267 123.275C115.133 124.967 114.961 126.657 114.802 128.347C114.786 128.515 114.74 128.681 114.695 128.917C114.245 128.798 113.826 128.687 113.407 128.578C110.966 127.939 108.525 127.3 106.083 126.663C105.632 126.546 105.224 126.367 104.84 126.082C101.016 123.245 97.1868 120.415 93.3458 117.601C90.951 115.846 88.5323 114.124 86.1273 112.384C84.9871 111.558 83.8647 110.708 82.7124 109.901C82.275 109.594 82.1157 109.264 82.1206 108.708C82.1576 104.599 82.1508 100.49 82.1507 96.3801C82.1505 83.608 82.1657 70.8358 82.1332 58.0638C82.1242 54.5161 81.9676 50.9688 81.8835 47.4212C81.824 44.9114 81.6174 42.4129 81.2877 39.9257C80.9697 37.5264 80.4094 35.1826 79.436 32.9607C77.9704 29.6155 75.5081 27.2994 72.1001 25.9802C69.6301 25.0241 67.0535 24.5843 64.4323 24.3667C60.0609 24.0037 55.6862 24.0095 51.3157 24.3663C49.064 24.5502 46.8355 24.9021 44.6856 25.634C42.8429 26.2613 41.1325 27.1409 39.6794 28.4521C37.8321 30.1188 36.6179 32.2037 35.8045 34.5349C34.9015 37.1226 34.5216 39.8132 34.2722 42.5263C33.9171 46.3904 33.8183 50.2676 33.8044 54.1438C33.769 64.06 33.7792 73.9763 33.779 83.8927C33.7788 91.417 33.7617 98.9414 33.8081 106.465C33.8351 110.843 33.945 115.221 34.0691 119.598C34.1615 122.86 34.468 126.106 35.1071 129.311C35.6077 131.823 36.353 134.241 37.7394 136.431C39.1453 138.652 41.0693 140.258 43.4349 141.349C45.6091 142.351 47.9188 142.866 50.2816 143.171C54.5079 143.716 58.7473 143.619 62.9885 143.434C63.5856 143.408 64.1824 143.375 64.7792 143.343C64.8158 143.342 64.8515 143.322 64.898 143.308C64.9719 143.069 64.7628 142.969 64.6433 142.842C63.0757 141.166 61.5006 139.497 59.9313 137.822C59.564 137.431 59.2113 137.025 58.8096 136.579C59.0037 136.408 59.1528 136.268 59.3115 136.14C61.845 134.09 64.3806 132.044 66.9131 129.993C67.2276 129.738 67.5356 129.475 67.8313 129.199C67.9925 129.048 68.1342 129.035 68.3485 129.091C71.1619 129.834 73.9789 130.562 76.7952 131.293C80.7122 132.31 84.6288 133.328 88.5467 134.341C91.2146 135.031 93.8843 135.714 96.5536 136.399C98.0284 136.777 99.5065 137.142 100.977 137.536C101.268 137.614 101.556 137.759 101.802 137.933C104.337 139.724 106.862 141.53 109.393 143.326C109.815 143.625 110.255 143.898 110.699 144.191C109.249 147.702 107.255 150.84 104.823 153.736C104.937 153.881 105.02 154.007 105.124 154.113C106.714 155.741 108.306 157.367 109.899 158.991C113.37 162.529 116.843 166.064 120.309 169.607C120.67 169.976 120.985 170.39 121.371 170.841C115.731 175.137 110.029 179.252 104.342 183.458Z" fill="#E6E6E6"/>
<path d="M98.7734 134.484C95.414 133.595 92.0968 132.729 88.783 131.849C86.679 131.291 84.5801 130.713 82.4792 130.143C79.6724 129.382 76.8634 128.628 74.0601 127.854C70.6621 126.916 67.2687 125.961 63.874 125.011C60.4604 124.056 57.042 123.117 53.6366 122.133C51.6573 121.561 49.6842 120.96 47.737 120.288C46.4299 119.838 45.3051 119.041 44.3403 118.04C44.1202 117.812 43.9365 117.549 43.736 117.302C43.7625 117.26 43.789 117.218 43.8154 117.177C44.334 117.268 44.8538 117.353 45.3708 117.452C49.1376 118.175 52.904 118.9 56.6704 119.625C60.0013 120.267 63.3301 120.918 66.6633 121.547C69.7696 122.133 72.8804 122.694 75.9893 123.266C78.7379 123.772 81.4915 124.253 84.2341 124.789C89.5306 125.825 94.8089 126.958 100.118 127.924C104.11 128.65 107.982 129.821 111.905 130.805C115.456 131.696 119.003 132.604 122.558 133.477C123.867 133.798 125.189 134.079 126.517 134.311C128.117 134.591 129.713 134.556 131.224 133.865C131.746 133.626 132.232 133.303 132.716 132.989C133.297 132.611 133.866 132.211 134.427 131.803C137.148 129.823 141.352 129.72 144.416 131.913C145.532 132.712 146.451 133.664 147.127 134.869C147.455 135.452 147.839 136.03 148.307 136.501C149.194 137.396 150.316 137.836 151.584 137.891C153.045 137.954 154.468 137.762 155.848 137.27C155.957 137.231 156.064 137.186 156.175 137.155C156.687 137.017 156.92 137.112 157.129 137.536C157.36 138.007 157.295 138.479 156.86 138.696C156.331 138.959 155.763 139.196 155.186 139.302C154.109 139.5 153.013 139.604 151.923 139.731C151.483 139.783 151.039 139.798 150.597 139.824C149.296 139.901 148.235 140.475 147.342 141.394C147.061 141.684 146.802 141.997 146.528 142.295C144.41 144.589 141.839 145.57 138.718 145.048C135.85 144.569 133.658 143.089 132.253 140.568C131.294 138.848 129.904 137.825 128.058 137.286C126.461 136.82 124.834 136.51 123.192 136.286C121.225 136.018 119.253 135.777 117.279 135.571C115.644 135.4 113.999 135.364 112.383 135.721C110.905 136.047 109.41 136.149 107.909 136.241C106.432 136.332 104.979 136.136 103.554 135.789C101.964 135.402 100.395 134.934 98.7734 134.484ZM145.475 137.314C145.344 136.853 145.267 136.368 145.072 135.936C144.008 133.57 141.732 132.214 138.993 132.378C136.887 132.505 135.244 133.468 134.449 135.489C133.631 137.571 133.969 139.543 135.541 141.163C137.041 142.709 138.926 143.33 141.076 143.002C143.644 142.611 145.845 140.229 145.475 137.314ZM101.112 131.001C100.453 132.482 101.478 133.6 102.708 133.935C102.861 133.977 103.052 133.94 103.21 133.891C103.881 133.684 104.234 133.161 104.431 132.535C104.778 131.431 104.004 129.746 102.419 130.007C101.842 130.102 101.459 130.455 101.112 131.001Z" fill="#E6E6E6"/>
<path d="M95.1213 121.955C97.7152 123.832 100.275 125.686 102.833 127.542C102.853 127.557 102.845 127.612 102.861 127.726C102.437 127.661 102.029 127.615 101.628 127.533C98.8149 126.957 96.007 126.357 93.1906 125.8C91.755 125.515 90.3041 125.309 88.8628 125.051C88.6844 125.02 88.4975 124.924 88.3573 124.806C85.5914 122.494 82.8437 120.159 80.0684 117.857C74.3245 113.094 68.5702 108.344 62.8132 103.597C59.3472 100.739 55.8708 97.8936 52.3927 95.0503C51.7213 94.5014 51.02 93.9892 50.334 93.4581C50.2464 93.3903 50.1681 93.3106 50.0262 93.1833C50.1829 93.1316 50.2759 93.0831 50.3733 93.0715C51.9278 92.8861 53.425 93.0589 54.7704 93.9141C55.9572 94.6684 57.1142 95.4701 58.2765 96.2623C60.0764 97.489 61.8702 98.7247 63.6656 99.958C66.0014 101.563 68.3382 103.166 70.6709 104.775C73.1942 106.515 75.7189 108.254 78.233 110.007C81.237 112.103 84.2367 114.204 87.2268 116.32C89.855 118.179 92.4675 120.061 95.1213 121.955Z" fill="#E6E6E6"/>
<path d="M135.204 148.766C137.894 149.511 139.81 151.131 141.021 153.578C141.362 154.267 141.611 155.002 141.909 155.712C142.095 156.156 142.277 156.603 142.489 157.035C143.124 158.333 144.114 159.262 145.431 159.856C146.564 160.368 147.751 160.686 148.97 160.898C149.274 160.951 149.58 160.991 149.881 161.056C150.467 161.182 150.72 161.579 150.604 162.165C150.486 162.759 150.042 163.119 149.49 162.996C148.833 162.849 148.184 162.658 147.542 162.455C146.275 162.054 145.018 161.622 143.751 161.222C142.541 160.839 141.407 161.024 140.304 161.653C139.386 162.176 138.452 162.697 137.472 163.082C135.436 163.882 133.382 163.711 131.377 162.924C128.935 161.966 127.171 160.3 126.319 157.783C126.043 156.966 125.884 156.104 125.732 155.252C125.306 152.857 124.083 150.936 122.199 149.462C120.044 147.776 117.837 146.156 115.626 144.544C113.18 142.761 110.711 141.011 108.24 139.265C107.122 138.476 105.972 137.734 104.841 136.965C104.659 136.841 104.495 136.69 104.344 136.507C106.954 137.122 109.53 136.782 112.12 136.358C112.72 137.482 113.506 138.43 114.324 139.351C115.801 141.013 117.44 142.509 119.171 143.895C120.84 145.231 122.499 146.588 124.35 147.679C125.147 148.149 125.949 148.599 126.838 148.889C127.977 149.262 129.107 149.265 130.25 148.939C131.871 148.476 133.504 148.322 135.204 148.766ZM132.21 150.699C131.985 150.753 131.758 150.799 131.536 150.862C130.041 151.291 129.01 152.221 128.503 153.702C128.196 154.597 128.158 155.516 128.326 156.443C128.743 158.752 130.219 160.177 132.278 161.066C133.676 161.669 135.135 161.713 136.568 161.187C138.997 160.296 140.202 157.496 139.277 154.98C138.284 152.28 135.648 150.314 132.21 150.699Z" fill="#E6E6E6"/>
<path d="M102.944 131.178C103.039 131.208 103.134 131.2 103.146 131.228C103.312 131.602 103.555 131.968 103.331 132.404C103.227 132.608 103.067 132.73 102.833 132.726C102.622 132.722 102.402 132.722 102.32 132.461C102.314 132.443 102.312 132.423 102.303 132.407C102.001 131.87 102.001 131.871 102.462 131.51C102.501 131.322 102.075 131.139 102.417 130.945C102.639 130.819 102.822 130.901 102.944 131.178Z" fill="#E6E6E6"/>
</svg>
